<?xml version="1.0" standalone="no"?>
<!DOCTYPE svg PUBLIC "-//W3C//DTD SVG 20010904//EN"
 "http://www.w3.org/TR/2001/REC-SVG-20010904/DTD/svg10.dtd">
<svg version="1.0" xmlns="http://www.w3.org/2000/svg"
 width="512.000000pt" height="512.000000pt" viewBox="0 0 512.000000 512.000000"
 preserveAspectRatio="xMidYMid meet">

<g transform="translate(0.000000,512.000000) scale(0.100000,-0.100000)"
fill="#000000" stroke="none">
<path d="M2321 5109 c-486 -43 -989 -249 -1376 -564 -114 -92 -294 -274 -384
-387 -229 -287 -417 -675 -495 -1023 -49 -218 -60 -325 -60 -575 0 -250 11
-357 60 -575 79 -355 272 -749 509 -1040 92 -114 274 -294 387 -384 287 -229
675 -417 1023 -495 218 -49 325 -60 575 -60 250 0 357 11 575 60 261 58 603
204 828 353 389 259 688 599 893 1016 165 337 246 658 261 1033 23 598 -168
1183 -545 1672 -84 109 -323 348 -432 432 -528 407 -1164 595 -1819 537z m579
-184 c133 -20 323 -66 454 -111 214 -74 501 -232 690 -382 91 -71 317 -297
388 -388 150 -189 308 -476 382 -690 93 -273 130 -497 130 -794 0 -243 -15
-369 -69 -585 -213 -844 -886 -1517 -1730 -1730 -216 -54 -342 -69 -585 -69
-297 0 -521 37 -794 130 -214 74 -501 232 -690 382 -91 71 -317 297 -388 388
-150 189 -308 476 -382 690 -45 133 -91 321 -113 464 -24 159 -24 501 0 660
39 259 109 485 221 715 126 257 251 432 460 641 147 146 224 210 378 312 317
209 692 341 1083 381 123 13 437 5 565 -14z"/>
<path d="M1770 4179 c-476 -48 -877 -88 -892 -88 l-28 -1 0 -1530 c0 -1450 1
-1530 18 -1530 9 -1 432 -42 940 -93 l922 -93 0 303 0 303 770 0 770 0 0 1110
0 1110 -770 0 -770 0 0 300 0 300 -47 -1 c-27 -1 -437 -41 -913 -90z m790
-1619 l0 -1529 -27 4 c-16 3 -352 37 -748 75 -396 39 -730 73 -742 76 l-23 4
0 1370 c0 754 1 1370 3 1371 1 0 344 36 762 79 418 43 763 78 768 79 4 0 7
-687 7 -1529z m1540 851 l0 -88 -599 -332 -600 -333 -85 48 -86 48 0 373 0
373 685 0 685 0 0 -89z m0 -1041 l0 -750 -685 0 -685 0 0 469 0 470 86 -48 86
-48 591 328 c326 181 595 329 600 329 4 0 7 -337 7 -750z"/>
<path d="M1658 3391 c-83 -27 -143 -65 -213 -136 -159 -159 -246 -404 -246
-695 0 -286 85 -532 240 -689 116 -120 231 -167 383 -159 77 5 99 11 164 42
183 91 315 284 377 550 29 130 29 382 0 512 -62 267 -194 459 -378 550 -68 34
-84 37 -173 41 -75 2 -110 -1 -154 -16z m257 -181 c127 -61 234 -230 282 -444
21 -95 21 -317 0 -412 -36 -158 -95 -279 -182 -369 -99 -102 -220 -131 -334
-79 -120 53 -231 211 -283 399 -19 68 -22 106 -22 255 0 149 3 187 22 255 50
184 159 340 277 397 51 25 70 29 125 26 43 -2 82 -12 115 -28z"/>
</g>
</svg>
