<?xml version="1.0" standalone="no"?>
<!DOCTYPE svg PUBLIC "-//W3C//DTD SVG 20010904//EN"
 "http://www.w3.org/TR/2001/REC-SVG-20010904/DTD/svg10.dtd">
<svg version="1.0" xmlns="http://www.w3.org/2000/svg"
 width="512.000000pt" height="512.000000pt" viewBox="0 0 512.000000 512.000000"
 preserveAspectRatio="xMidYMid meet">
<metadata>
Created by potrace 1.16, written by Peter Selinger 2001-2019
</metadata>
<g transform="translate(0.000000,512.000000) scale(0.100000,-0.100000)"
fill="#000000" stroke="none">
<path d="M924 3978 c-263 -287 -462 -737 -514 -1162 -14 -116 -14 -397 0 -511
52 -422 225 -820 498 -1145 336 -402 827 -670 1360 -744 143 -20 441 -21 577
-1 430 61 810 232 1131 509 104 89 184 169 184 182 0 3 8 13 18 22 10 10 12
13 5 8 -9 -6 -21 -2 -36 11 -1087 990 -1282 1163 -1288 1146 -4 -10 -8 -14 -8
-8 -1 5 -101 -90 -223 -212 -145 -144 -236 -228 -260 -238 -52 -21 -134 -19
-188 6 -53 24 -516 478 -556 545 -30 52 -40 125 -24 184 22 82 135 170 219
170 12 0 43 -5 69 -12 42 -10 66 -30 213 -175 91 -89 170 -163 175 -163 5 0
62 53 127 118 l117 117 -764 695 c-421 382 -771 696 -779 698 -7 2 -31 -16
-53 -40z"/>
</g>
</svg>
