<?xml version="1.0" standalone="no"?>
<!DOCTYPE svg PUBLIC "-//W3C//DTD SVG 20010904//EN"
 "http://www.w3.org/TR/2001/REC-SVG-20010904/DTD/svg10.dtd">
<svg version="1.0" xmlns="http://www.w3.org/2000/svg"
 width="512.000000pt" height="512.000000pt" viewBox="0 0 512.000000 512.000000"
 preserveAspectRatio="xMidYMid meet">

<g transform="translate(0.000000,512.000000) scale(0.100000,-0.100000)"
fill="#000000" stroke="none">
<path d="M1234 5101 c-50 -23 -107 -88 -131 -150 -16 -42 -18 -98 -21 -611
l-4 -565 -444 -365 c-293 -241 -449 -376 -459 -397 -13 -27 -15 -206 -15
-1466 l0 -1434 22 -33 c13 -18 36 -43 51 -54 l28 -21 2299 0 2299 0 28 21 c15
11 38 36 51 54 l22 33 -2 1446 c-3 1405 -4 1447 -22 1471 -17 22 -377 323
-771 645 l-123 100 -4 565 c-4 631 -2 614 -75 700 -74 86 48 80 -1403 80
-1227 0 -1287 -1 -1326 -19z m2486 -1574 l0 -1272 -152 -126 c-84 -69 -345
-284 -580 -478 l-428 -352 -580 478 -580 478 0 1273 0 1272 1160 0 1160 0 0
-1273z m-2642 -795 l-3 -208 -250 206 c-137 114 -248 211 -245 216 2 5 115
100 250 211 l245 202 3 -209 c1 -116 1 -304 0 -418z m3227 413 c127 -104 234
-192 238 -195 5 -4 -83 -83 -195 -176 -112 -92 -227 -188 -255 -212 l-53 -44
0 422 c0 402 1 422 18 408 9 -8 121 -99 247 -203z m-2717 -1460 c517 -427 890
-728 916 -739 52 -22 97 -17 147 17 29 19 683 558 1757 1445 l232 192 0 -1140
0 -1140 -2080 0 -2080 0 0 1140 0 1141 118 -98 c65 -54 511 -422 990 -818z"/>
<path d="M2406 4125 c-356 -63 -642 -325 -738 -677 -20 -71 -23 -106 -22 -238
1 -138 4 -165 27 -243 101 -332 350 -569 682 -647 224 -54 553 0 628 102 31
42 34 118 7 166 -47 84 -118 98 -265 53 -88 -27 -225 -29 -316 -6 -207 54
-376 223 -429 430 -55 214 2 417 160 576 125 127 285 188 459 175 155 -12 273
-66 387 -180 107 -108 174 -260 174 -399 0 -51 -4 -62 -29 -88 -31 -31 -83
-39 -122 -19 -27 15 -49 63 -49 108 0 55 -27 139 -62 194 -170 268 -571 239
-706 -50 -24 -50 -27 -69 -27 -162 0 -97 2 -110 32 -173 98 -206 343 -290 547
-186 52 27 60 28 75 15 41 -38 136 -70 217 -74 133 -7 235 32 326 125 91 93
124 193 115 347 -15 241 -107 437 -286 608 -170 162 -362 244 -596 253 -69 3
-139 -1 -189 -10z m217 -856 c25 -31 22 -81 -7 -108 -68 -64 -170 17 -125 100
23 43 99 47 132 8z"/>
</g>
</svg>
