<?xml version="1.0" standalone="no"?>
<!DOCTYPE svg PUBLIC "-//W3C//DTD SVG 20010904//EN"
 "http://www.w3.org/TR/2001/REC-SVG-20010904/DTD/svg10.dtd">
<svg version="1.0" xmlns="http://www.w3.org/2000/svg"
 width="512.000000pt" height="512.000000pt" viewBox="0 0 512.000000 512.000000"
 preserveAspectRatio="xMidYMid meet">

<g transform="translate(0.000000,512.000000) scale(0.100000,-0.100000)"
fill="#000000" stroke="none">
<path d="M3630 3729 c-575 -429 -1051 -785 -1058 -792 -9 -10 -12 -95 -10
-381 l3 -367 385 288 c212 158 652 487 978 730 l592 442 0 -1519 0 -1520 98 0
c56 0 123 7 157 15 168 44 286 162 330 332 13 49 15 263 15 1583 0 1004 -4
1547 -11 1590 -22 141 -106 260 -227 323 -61 32 -146 57 -190 57 -9 0 -487
-351 -1062 -781z"/>
<path d="M0 2563 c0 -1666 -2 -1606 57 -1716 83 -156 239 -236 456 -237 l87 0
0 1524 0 1524 -288 216 c-159 119 -294 216 -300 216 -9 0 -12 -378 -12 -1527z"/>
</g>
</svg>
