<?xml version="1.0" standalone="no"?>
<!DOCTYPE svg PUBLIC "-//W3C//DTD SVG 20010904//EN"
 "http://www.w3.org/TR/2001/REC-SVG-20010904/DTD/svg10.dtd">
<svg version="1.0" xmlns="http://www.w3.org/2000/svg"
 width="512.000000pt" height="512.000000pt" viewBox="0 0 512.000000 512.000000"
 preserveAspectRatio="xMidYMid meet">
<metadata>
Created by potrace 1.16, written by Peter Selinger 2001-2019
</metadata>
<g transform="translate(0.000000,512.000000) scale(0.100000,-0.100000)"
fill="#000000" stroke="none">
<path d="M1169 5105 c-570 -97 -1022 -534 -1146 -1108 -17 -76 -18 -179 -18
-1437 0 -1258 1 -1361 18 -1437 59 -277 188 -514 387 -713 199 -199 436 -328
713 -387 76 -17 179 -18 1437 -18 1258 0 1361 1 1437 18 277 59 514 188 713
387 199 199 328 436 387 713 17 76 18 179 18 1437 0 1258 -1 1361 -18 1437
-59 277 -188 514 -387 713 -195 195 -418 317 -705 387 -64 16 -187 17 -1415
19 -1059 2 -1361 -1 -1421 -11z m2726 -309 c239 -43 416 -136 591 -310 174
-175 267 -352 310 -591 21 -119 21 -2551 0 -2670 -43 -239 -136 -416 -310
-591 -175 -174 -352 -267 -591 -310 -119 -21 -2551 -21 -2670 0 -239 43 -416
136 -591 310 -174 175 -267 352 -310 591 -21 119 -21 2551 0 2670 43 239 136
416 310 591 172 171 349 265 581 309 108 20 2567 21 2680 1z"/>
<path d="M3961 4469 c-112 -22 -230 -107 -286 -206 -83 -149 -70 -346 31 -476
81 -104 186 -158 321 -165 226 -11 408 137 445 362 49 293 -215 543 -511 485z
m153 -324 c13 -9 32 -33 42 -53 15 -32 15 -41 3 -76 -16 -45 -67 -86 -106 -86
-42 0 -90 30 -107 65 -21 44 -20 73 4 113 36 59 107 74 164 37z"/>
<path d="M2400 3960 c-177 -22 -337 -71 -489 -151 -385 -201 -660 -573 -737
-999 -24 -128 -24 -372 0 -500 104 -574 562 -1032 1136 -1136 128 -24 372 -24
500 0 574 104 1032 562 1136 1136 24 128 24 372 0 500 -77 426 -350 796 -737
1000 -113 59 -272 113 -394 135 -112 20 -316 27 -415 15z m348 -321 c73 -11
226 -61 297 -97 201 -101 396 -296 497 -497 36 -70 86 -222 99 -302 14 -87 14
-279 0 -366 -13 -80 -63 -232 -99 -302 -101 -201 -296 -396 -497 -497 -70 -36
-222 -86 -302 -99 -87 -14 -279 -14 -366 0 -80 13 -232 63 -302 99 -201 101
-396 296 -497 497 -36 70 -86 222 -99 302 -14 87 -14 279 0 366 13 80 63 232
99 302 116 231 331 432 560 525 201 82 387 103 610 69z"/>
</g>
</svg>
