<?xml version="1.0" standalone="no"?>
<!DOCTYPE svg PUBLIC "-//W3C//DTD SVG 20010904//EN"
 "http://www.w3.org/TR/2001/REC-SVG-20010904/DTD/svg10.dtd">
<svg version="1.0" xmlns="http://www.w3.org/2000/svg"
 width="512.000000pt" height="512.000000pt" viewBox="0 0 512.000000 512.000000"
 preserveAspectRatio="xMidYMid meet">

<g transform="translate(0.000000,512.000000) scale(0.100000,-0.100000)"
fill="#000000" stroke="none">
<path d="M1160 5105 c-296 -41 -555 -169 -765 -380 -192 -191 -322 -437 -372
-705 -17 -88 -18 -190 -18 -1460 0 -1270 1 -1372 18 -1460 78 -416 345 -770
722 -958 106 -53 239 -97 355 -119 88 -17 190 -18 1460 -18 1270 0 1372 1
1460 18 416 78 770 345 958 722 53 106 97 239 119 355 17 88 18 190 18 1460 0
1270 -1 1372 -18 1460 -78 416 -345 770 -722 958 -101 50 -235 96 -345 118
-78 16 -200 18 -1430 20 -1068 2 -1365 0 -1440 -11z m2865 -348 c230 -63 423
-190 557 -367 68 -89 143 -245 176 -365 l27 -100 0 -1365 0 -1365 -28 -100
c-63 -230 -190 -423 -367 -557 -89 -68 -245 -143 -365 -176 l-100 -27 -1365 0
-1365 0 -100 27 c-368 101 -631 363 -732 733 l-28 100 0 1365 0 1365 28 100
c80 294 256 515 516 649 92 48 224 90 326 105 33 5 659 8 1390 7 l1330 -1 100
-28z"/>
<path d="M2975 3914 c-156 -34 -266 -95 -386 -214 -123 -122 -185 -235 -216
-399 -13 -66 -22 -91 -33 -91 -34 0 -186 42 -278 76 -244 91 -405 199 -617
412 -89 89 -117 112 -147 117 -99 19 -171 -34 -207 -149 -55 -178 -86 -475
-79 -748 6 -191 24 -276 92 -422 86 -185 279 -411 482 -565 75 -57 77 -54 -51
-94 -119 -37 -206 -48 -383 -50 -146 -2 -163 -4 -189 -23 -48 -36 -73 -82 -73
-136 0 -97 31 -127 237 -230 291 -145 556 -208 880 -208 507 0 957 173 1313
505 344 321 558 765 600 1245 l8 97 103 154 c120 181 151 244 185 384 20 86
23 111 14 143 -30 113 -128 150 -256 98 -32 -13 -119 -34 -192 -45 l-133 -22
-48 35 c-61 45 -178 100 -256 122 -85 23 -281 28 -370 8z m286 -330 c77 -23
125 -50 192 -105 90 -75 128 -80 320 -43 26 5 22 -3 -71 -143 l-98 -149 -12
-140 c-18 -225 -63 -395 -158 -594 -236 -493 -661 -805 -1194 -876 -129 -17
-336 -18 -449 -2 l-83 11 93 44 c139 65 285 165 309 213 34 66 21 150 -29 194
-12 11 -69 49 -126 85 -257 163 -451 356 -544 546 -68 136 -74 178 -67 425 3
118 8 227 12 242 l6 27 67 -54 c197 -159 481 -296 746 -358 217 -51 390 -63
445 -31 64 37 96 110 79 182 -34 145 12 300 121 409 114 114 291 161 441 117z"/>
</g>
</svg>
