<?xml version="1.0" standalone="no"?>
<!DOCTYPE svg PUBLIC "-//W3C//DTD SVG 20010904//EN"
 "http://www.w3.org/TR/2001/REC-SVG-20010904/DTD/svg10.dtd">
<svg version="1.0" xmlns="http://www.w3.org/2000/svg"
 width="512.000000pt" height="512.000000pt" viewBox="0 0 512.000000 512.000000"
 preserveAspectRatio="xMidYMid meet">
<metadata>
Created by potrace 1.16, written by Peter Selinger 2001-2019
</metadata>
<g transform="translate(0.000000,512.000000) scale(0.100000,-0.100000)"
fill="#000000" stroke="none">
<path d="M980 5111 c0 -5 42 -132 94 -282 126 -366 210 -631 241 -759 25 -103
25 -111 25 -507 l0 -403 150 0 150 0 0 393 1 392 177 585 178 585 -149 3 c-83
1 -152 0 -154 -2 -3 -3 -47 -164 -98 -359 -51 -194 -94 -359 -96 -366 -3 -7
-49 154 -104 358 l-100 371 -157 0 c-87 0 -158 -4 -158 -9z"/>
<path d="M2253 4626 c-135 -44 -226 -161 -253 -328 -5 -35 -10 -219 -10 -410
0 -464 13 -532 127 -645 73 -72 139 -96 263 -97 105 0 152 12 223 57 94 59
147 157 167 311 18 135 8 764 -13 839 -37 127 -106 215 -205 259 -60 27 -234
35 -299 14z m196 -255 c47 -33 49 -60 50 -471 1 -234 -3 -399 -9 -422 -14 -48
-61 -88 -105 -88 -43 0 -89 38 -107 88 -18 53 -19 781 0 833 29 82 105 109
171 60z"/>
<path d="M2992 3958 l3 -673 25 -50 c34 -67 75 -90 160 -90 93 0 168 36 268
129 l32 30 0 -72 0 -72 135 0 135 0 0 735 0 735 -135 0 -135 0 0 -560 0 -561
-46 -49 c-70 -75 -138 -89 -162 -34 -9 18 -12 191 -12 614 l0 590 -135 0 -136
0 3 -672z"/>
<path d="M1788 3009 c-480 -12 -861 -44 -963 -79 -79 -27 -186 -101 -236 -163
-98 -122 -142 -277 -175 -617 -24 -245 -24 -1038 0 -1286 37 -389 79 -522 209
-653 71 -72 184 -132 282 -149 82 -15 396 -40 655 -52 279 -13 1721 -13 2000
0 263 12 574 37 655 52 122 22 234 88 315 185 105 126 142 253 176 617 24 246
24 1040 1 1287 -17 175 -44 341 -71 430 -49 160 -180 293 -342 350 -202 69
-1422 107 -2506 78z m-158 -599 l0 -130 -160 0 -160 0 0 -830 0 -830 -140 0
-140 0 0 830 0 830 -150 0 -150 0 0 130 0 130 450 0 450 0 0 -130z m1270 -185
c0 -173 3 -315 8 -315 4 0 28 22 54 49 126 130 304 139 383 19 52 -79 57 -121
62 -548 8 -645 -9 -744 -141 -812 -32 -16 -53 -19 -101 -16 -76 7 -127 32
-204 104 l-61 56 0 -71 0 -71 -125 0 -125 0 0 960 0 960 125 0 125 0 0 -315z
m1257 -187 c74 -27 153 -102 187 -177 38 -85 46 -149 46 -373 l0 -198 -261 0
-261 0 4 -177 c5 -194 15 -235 65 -268 36 -24 108 -23 141 2 40 30 52 62 59
167 l6 96 124 0 123 0 0 -97 c0 -121 -17 -185 -66 -260 -73 -110 -184 -159
-335 -151 -184 11 -295 104 -347 291 -15 54 -17 113 -17 442 0 407 4 445 55
545 79 155 294 226 477 158z m-2227 -581 c0 -581 0 -594 20 -612 41 -37 111
-15 173 54 l37 41 0 555 0 555 130 0 130 0 0 -715 0 -715 -130 0 -130 0 0 76
0 76 -62 -56 c-126 -114 -247 -146 -336 -89 -85 55 -92 121 -92 876 l0 547
130 0 130 0 0 -593z"/>
<path d="M2981 1829 c-13 -5 -36 -18 -52 -30 l-29 -21 2 -446 3 -446 41 -29
c81 -57 166 -34 196 52 15 41 19 767 5 833 -4 20 -21 50 -36 67 -23 25 -37 31
-68 30 -21 0 -49 -5 -62 -10z"/>
<path d="M3951 1827 c-56 -28 -81 -106 -81 -254 l0 -73 136 0 136 0 -4 123
c-4 136 -17 176 -68 202 -35 18 -86 19 -119 2z"/>
</g>
</svg>
